<?xml version="1.0" encoding="UTF-8" standalone="no"?>
<!DOCTYPE svg PUBLIC "-//W3C//DTD SVG 1.1//EN"
 "http://www.w3.org/Graphics/SVG/1.1/DTD/svg11.dtd">
<!-- Generated by graphviz version 2.44.0 (20200408.0750)
 -->
<!-- Title: G Pages: 1 -->
<svg width="258pt" height="150pt"
 viewBox="0.00 0.00 258.40 150.41" xmlns="http://www.w3.org/2000/svg" xmlns:xlink="http://www.w3.org/1999/xlink">
<g id="graph0" class="graph" transform="scale(1 1) rotate(0) translate(4 146.41)">
<title>G</title>
<polygon fill="white" stroke="transparent" points="-4,4 -4,-146.41 254.4,-146.41 254.4,4 -4,4"/>
<!-- 0 -->
<g id="node1" class="node">
<title>0</title>
<ellipse fill="none" stroke="black" cx="81.82" cy="-124.41" rx="29.5" ry="18"/>
<text text-anchor="middle" x="81.82" y="-120.71" font-family="Times,serif" font-size="14.00">C | C</text>
</g>
<!-- 1 -->
<g id="node2" class="node">
<title>1</title>
<ellipse fill="none" stroke="black" cx="145.5" cy="-77.69" rx="29.5" ry="18"/>
<text text-anchor="middle" x="145.5" y="-73.99" font-family="Times,serif" font-size="14.00">C | C</text>
</g>
<!-- 0&#45;&#45;1 -->
<g id="edge1" class="edge">
<title>0&#45;&#45;1</title>
<path fill="none" stroke="black" d="M100.93,-110.39C108.99,-104.48 118.35,-97.61 126.41,-91.7"/>
<text text-anchor="middle" x="101.67" y="-89.85" font-family="Times,serif" font-size="14.00">= | &#45;</text>
</g>
<!-- 3 -->
<g id="node4" class="node">
<title>3</title>
<ellipse fill="none" stroke="black" cx="30.55" cy="-64.71" rx="30.59" ry="18"/>
<text text-anchor="middle" x="30.55" y="-61.01" font-family="Times,serif" font-size="14.00">H | H</text>
</g>
<!-- 0&#45;&#45;3 -->
<g id="edge2" class="edge">
<title>0&#45;&#45;3</title>
<path fill="none" stroke="black" stroke-dasharray="1,5" d="M68.08,-108.41C60.84,-99.98 51.98,-89.66 44.68,-81.17"/>
<text text-anchor="middle" x="53.88" y="-98.59" font-family="Times,serif" font-size="14.00">&#45;</text>
</g>
<!-- 2 -->
<g id="node3" class="node">
<title>2</title>
<ellipse fill="none" stroke="black" cx="93.99" cy="-18" rx="30.59" ry="18"/>
<text text-anchor="middle" x="93.99" y="-14.3" font-family="Times,serif" font-size="14.00">O | O</text>
</g>
<!-- 1&#45;&#45;2 -->
<g id="edge3" class="edge">
<title>1&#45;&#45;2</title>
<path fill="none" stroke="black" d="M131.7,-61.69C124.43,-53.27 115.52,-42.95 108.19,-34.46"/>
<text text-anchor="middle" x="107.95" y="-51.88" font-family="Times,serif" font-size="14.00">&#45; | =</text>
</g>
<!-- 4 -->
<g id="node5" class="node">
<title>4</title>
<ellipse fill="none" stroke="black" cx="219.86" cy="-88.14" rx="30.59" ry="18"/>
<text text-anchor="middle" x="219.86" y="-84.44" font-family="Times,serif" font-size="14.00">H | H</text>
</g>
<!-- 1&#45;&#45;4 -->
<g id="edge4" class="edge">
<title>1&#45;&#45;4</title>
<path fill="none" stroke="black" d="M174.04,-81.7C179.28,-82.44 184.76,-83.21 190.04,-83.95"/>
<text text-anchor="middle" x="182.04" y="-71.63" font-family="Times,serif" font-size="14.00">&#45; | &#45;</text>
</g>
<!-- 2&#45;&#45;3 -->
<g id="edge5" class="edge">
<title>2&#45;&#45;3</title>
<path fill="none" stroke="black" stroke-dasharray="5,2" d="M74.61,-32.27C66.74,-38.06 57.67,-44.74 49.81,-50.53"/>
<text text-anchor="middle" x="59.71" y="-30.2" font-family="Times,serif" font-size="14.00">&#45;</text>
</g>
</g>
</svg>
