<?xml version="1.0" encoding="UTF-8" standalone="no"?>
<!DOCTYPE svg PUBLIC "-//W3C//DTD SVG 1.1//EN"
 "http://www.w3.org/Graphics/SVG/1.1/DTD/svg11.dtd">
<!-- Generated by graphviz version 2.44.0 (20200408.0750)
 -->
<!-- Title: G Pages: 1 -->
<svg width="160pt" height="134pt"
 viewBox="0.00 0.00 160.20 134.19" xmlns="http://www.w3.org/2000/svg" xmlns:xlink="http://www.w3.org/1999/xlink">
<g id="graph0" class="graph" transform="scale(1 1) rotate(0) translate(4 130.19)">
<title>G</title>
<polygon fill="white" stroke="transparent" points="-4,4 -4,-130.19 156.2,-130.19 156.2,4 -4,4"/>
<!-- 0 -->
<g id="node1" class="node">
<title>0</title>
<ellipse fill="none" stroke="black" cx="29.25" cy="-55.04" rx="29.5" ry="18"/>
<text text-anchor="middle" x="29.25" y="-51.34" font-family="Times,serif" font-size="14.00">C | C</text>
</g>
<!-- 1 -->
<g id="node2" class="node">
<title>1</title>
<ellipse fill="none" stroke="black" cx="122.96" cy="-57.26" rx="29.5" ry="18"/>
<text text-anchor="middle" x="122.96" y="-53.56" font-family="Times,serif" font-size="14.00">C | C</text>
</g>
<!-- 0&#45;&#45;1 -->
<g id="edge1" class="edge">
<title>0&#45;&#45;1</title>
<path fill="none" stroke="black" d="M58.64,-55.74C69.8,-56 82.51,-56.3 93.67,-56.57"/>
<text text-anchor="middle" x="76.15" y="-44.95" font-family="Times,serif" font-size="14.00">= | &#45;</text>
</g>
<!-- 3 -->
<g id="node4" class="node">
<title>3</title>
<ellipse fill="none" stroke="black" cx="52.99" cy="-108.19" rx="30.59" ry="18"/>
<text text-anchor="middle" x="52.99" y="-104.49" font-family="Times,serif" font-size="14.00">H | H</text>
</g>
<!-- 0&#45;&#45;3 -->
<g id="edge2" class="edge">
<title>0&#45;&#45;3</title>
<path fill="none" stroke="black" stroke-dasharray="1,5" d="M37.02,-72.44C39.62,-78.26 42.51,-84.74 45.11,-90.57"/>
<text text-anchor="middle" x="38.57" y="-85.31" font-family="Times,serif" font-size="14.00">&#45;</text>
</g>
<!-- 2 -->
<g id="node3" class="node">
<title>2</title>
<ellipse fill="none" stroke="black" cx="79.66" cy="-18" rx="30.59" ry="18"/>
<text text-anchor="middle" x="79.66" y="-14.3" font-family="Times,serif" font-size="14.00">O | O</text>
</g>
<!-- 1&#45;&#45;2 -->
<g id="edge3" class="edge">
<title>1&#45;&#45;2</title>
<path fill="none" stroke="black" d="M106.34,-42.19C103.1,-39.25 99.7,-36.17 96.45,-33.22"/>
<text text-anchor="middle" x="113.39" y="-26.51" font-family="Times,serif" font-size="14.00">&#45; | =</text>
</g>
<!-- 2&#45;&#45;3 -->
<g id="edge4" class="edge">
<title>2&#45;&#45;3</title>
<path fill="none" stroke="black" stroke-dasharray="5,2" d="M74.39,-35.82C69.71,-51.63 62.92,-74.61 58.25,-90.41"/>
<text text-anchor="middle" x="63.82" y="-66.92" font-family="Times,serif" font-size="14.00">&#45;</text>
</g>
</g>
</svg>
