<?xml version="1.0" encoding="UTF-8" standalone="no"?>
<!DOCTYPE svg PUBLIC "-//W3C//DTD SVG 1.1//EN"
 "http://www.w3.org/Graphics/SVG/1.1/DTD/svg11.dtd">
<!-- Generated by graphviz version 2.44.0 (20200408.0750)
 -->
<!-- Title: G Pages: 1 -->
<svg width="211pt" height="205pt"
 viewBox="0.00 0.00 211.09 204.58" xmlns="http://www.w3.org/2000/svg" xmlns:xlink="http://www.w3.org/1999/xlink">
<g id="graph0" class="graph" transform="scale(1 1) rotate(0) translate(4 200.58)">
<title>G</title>
<polygon fill="white" stroke="transparent" points="-4,4 -4,-200.58 207.09,-200.58 207.09,4 -4,4"/>
<!-- 0 -->
<g id="node1" class="node">
<title>0</title>
<ellipse fill="none" stroke="black" cx="29.25" cy="-62.42" rx="29.5" ry="18"/>
<text text-anchor="middle" x="29.25" y="-58.72" font-family="Times,serif" font-size="14.00">C | C</text>
</g>
<!-- 1 -->
<g id="node2" class="node">
<title>1</title>
<ellipse fill="none" stroke="black" cx="96.14" cy="-18" rx="29.5" ry="18"/>
<text text-anchor="middle" x="96.14" y="-14.3" font-family="Times,serif" font-size="14.00">C | C</text>
</g>
<!-- 0&#45;&#45;1 -->
<g id="edge1" class="edge">
<title>0&#45;&#45;1</title>
<path fill="none" stroke="black" d="M49.32,-49.09C57.78,-43.47 67.62,-36.94 76.08,-31.32"/>
<text text-anchor="middle" x="50.7" y="-29" font-family="Times,serif" font-size="14.00">&#45; | =</text>
</g>
<!-- 5 -->
<g id="node6" class="node">
<title>5</title>
<ellipse fill="none" stroke="black" cx="33.94" cy="-142.58" rx="29.5" ry="18"/>
<text text-anchor="middle" x="33.94" y="-138.88" font-family="Times,serif" font-size="14.00">C | C</text>
</g>
<!-- 0&#45;&#45;5 -->
<g id="edge2" class="edge">
<title>0&#45;&#45;5</title>
<path fill="none" stroke="black" stroke-dasharray="5,2" d="M30.31,-80.61C31.08,-93.73 32.11,-111.36 32.88,-124.46"/>
<text text-anchor="middle" x="29.1" y="-106.33" font-family="Times,serif" font-size="14.00">&#45;</text>
</g>
<!-- 2 -->
<g id="node3" class="node">
<title>2</title>
<ellipse fill="none" stroke="black" cx="167.94" cy="-53.92" rx="30.59" ry="18"/>
<text text-anchor="middle" x="167.94" y="-50.22" font-family="Times,serif" font-size="14.00">O | O</text>
</g>
<!-- 1&#45;&#45;2 -->
<g id="edge3" class="edge">
<title>1&#45;&#45;2</title>
<path fill="none" stroke="black" d="M118.86,-29.36C127.07,-33.48 136.36,-38.12 144.63,-42.26"/>
<text text-anchor="middle" x="143.74" y="-24.61" font-family="Times,serif" font-size="14.00">= | &#45;</text>
</g>
<!-- 3 -->
<g id="node4" class="node">
<title>3</title>
<ellipse fill="none" stroke="black" cx="172.55" cy="-134.08" rx="30.59" ry="18"/>
<text text-anchor="middle" x="172.55" y="-130.38" font-family="Times,serif" font-size="14.00">H | H</text>
</g>
<!-- 2&#45;&#45;3 -->
<g id="edge4" class="edge">
<title>2&#45;&#45;3</title>
<path fill="none" stroke="black" stroke-dasharray="1,5" d="M168.98,-72.11C169.74,-85.23 170.75,-102.86 171.5,-115.97"/>
<text text-anchor="middle" x="167.74" y="-97.84" font-family="Times,serif" font-size="14.00">&#45;</text>
</g>
<!-- 4 -->
<g id="node5" class="node">
<title>4</title>
<ellipse fill="none" stroke="black" cx="105.7" cy="-178.58" rx="30.59" ry="18"/>
<text text-anchor="middle" x="105.7" y="-174.88" font-family="Times,serif" font-size="14.00">O | O</text>
</g>
<!-- 3&#45;&#45;4 -->
<g id="edge5" class="edge">
<title>3&#45;&#45;4</title>
<path fill="none" stroke="black" stroke-dasharray="5,2" d="M152.13,-147.68C143.83,-153.2 134.28,-159.56 126,-165.07"/>
<text text-anchor="middle" x="136.56" y="-145.17" font-family="Times,serif" font-size="14.00">&#45;</text>
</g>
<!-- 4&#45;&#45;5 -->
<g id="edge6" class="edge">
<title>4&#45;&#45;5</title>
<path fill="none" stroke="black" d="M82.21,-166.79C74.03,-162.69 64.88,-158.1 56.76,-154.02"/>
<text text-anchor="middle" x="57.48" y="-164.21" font-family="Times,serif" font-size="14.00">&#45; | =</text>
</g>
</g>
</svg>
